<svg xmlns="http://www.w3.org/2000/svg" viewBox="0 0 78.03 78.01"><defs><style>.cls-1{fill:#fff;}</style></defs><g id="Layer_2" data-name="Layer 2"><g id="Warstwa_1" data-name="Warstwa 1"><path class="cls-1" d="M56.75,24.93A1.76,1.76,0,0,0,55,23.17H49.71v3.52A1.76,1.76,0,1,1,48,24.93V23.17H32.12v3.52a1.76,1.76,0,1,1-1.76-1.76V23.17h-7a1.76,1.76,0,0,0-1.76,1.76v5.28H56.75Z"/><path class="cls-1" d="M75,23.83A39,39,0,1,0,17.21,71.35,39,39,0,0,0,75,23.83ZM52.35,60.12a9.68,9.68,0,0,1-7.46-3.52H23.32a3.53,3.53,0,0,1-3.52-3.52V24.93a3.53,3.53,0,0,1,3.52-3.52h7V18.77a.88.88,0,0,1,1.76,0v2.64H48V18.77a.88.88,0,1,1,1.75,0v2.64H55a3.53,3.53,0,0,1,3.52,3.52V43a9.67,9.67,0,0,1-6.16,17.13Z"/><path class="cls-1" d="M52.35,40.77a9.69,9.69,0,0,1,4.4,1.06V32H21.56V53.08a1.76,1.76,0,0,0,1.76,1.76H43.74a9.67,9.67,0,0,1,8.61-14.07Z"/><path class="cls-1" d="M52.35,42.53a7.92,7.92,0,1,0,7.92,7.91A7.92,7.92,0,0,0,52.35,42.53Zm3.27,11.18A.9.9,0,0,1,55,54a.88.88,0,0,1-.62-.25l-2.64-2.64a.92.92,0,0,1-.26-.63V45.17a.88.88,0,0,1,1.76,0v4.91l2.39,2.38A.89.89,0,0,1,55.62,53.71Z"/></g></g></svg>
