<svg xmlns="http://www.w3.org/2000/svg" viewBox="0 0 80.03 80.01"><defs><style>.cls-1{fill:none;stroke:#fff;stroke-width:2px;}.cls-2{fill:#fff;}</style></defs><g id="Layer_2" data-name="Layer 2"><g id="Warstwa_1" data-name="Warstwa 1"><path id="Subtraction_19" data-name="Subtraction 19" class="cls-1" d="M40,79A39,39,0,0,1,7.68,18.21,39,39,0,1,1,40,79Z"/><path class="cls-2" d="M59.51,44V25.93A3.53,3.53,0,0,0,56,22.41H50.71V19.77a.88.88,0,1,0-1.75,0v2.64H33.12V19.77a.88.88,0,0,0-1.76,0v2.64h-7a3.53,3.53,0,0,0-3.52,3.52V54.08a3.53,3.53,0,0,0,3.52,3.52H45.89A9.67,9.67,0,1,0,59.51,44ZM22.56,25.93a1.76,1.76,0,0,1,1.76-1.76h7v1.76a1.76,1.76,0,1,0,1.76,1.76V24.17H49v1.76a1.76,1.76,0,1,0,1.75,1.76V24.17H56a1.76,1.76,0,0,1,1.76,1.76v5.28H22.56Zm1.76,29.91a1.76,1.76,0,0,1-1.76-1.76V33H57.75v9.87a9.57,9.57,0,0,0-4.4-1.07,9.67,9.67,0,0,0-8.61,14.07Zm29,3.52a7.92,7.92,0,1,1,7.92-7.92A7.92,7.92,0,0,1,53.35,59.36Z"/><path class="cls-2" d="M54.23,51.08V46.17a.88.88,0,0,0-1.76,0v5.27a.92.92,0,0,0,.26.63l2.64,2.64A.88.88,0,0,0,56,55a.88.88,0,0,0,.63-1.5Z"/></g></g></svg>
