<?xml version="1.0" encoding="utf-8"?>
<!-- Generator: Adobe Illustrator 24.1.1, SVG Export Plug-In . SVG Version: 6.00 Build 0)  -->
<svg version="1.1" id="Capa_1" xmlns="http://www.w3.org/2000/svg" xmlns:xlink="http://www.w3.org/1999/xlink" x="0px" y="0px"
	 viewBox="0 0 477.1 477.1" style="enable-background:new 0 0 477.1 477.1;" xml:space="preserve">
<style type="text/css">
	.st0{fill:#FFFFFF;}
</style>
<g>
	<path class="st0" d="M326.7,342h-64.6v-64.6c0-0.7-0.1-1.3-0.2-2c65.4-11.1,115.4-68.2,115.4-136.7C377.2,62.2,315,0,238.6,0
		C162.1,0,99.9,62.2,99.9,138.7c0,68.5,50,125.6,115.4,136.7c-0.1,0.7-0.2,1.3-0.2,2V342h-64.6c-13,0-23.5,10.5-23.5,23.5
		c0,13,10.5,23.5,23.5,23.5h64.6v64.6c0,13,10.5,23.5,23.5,23.5c13,0,23.5-10.5,23.5-23.5V389h64.6c13,0,23.5-10.5,23.5-23.5
		C350.2,352.5,339.7,342,326.7,342z M146.9,138.7c0-50.5,41.1-91.7,91.7-91.7c50.5,0,91.7,41.1,91.7,91.7s-41.1,91.7-91.7,91.7
		C188,230.3,146.9,189.2,146.9,138.7z"/>
</g>
</svg>
