<svg xmlns="http://www.w3.org/2000/svg" viewBox="0 0 78.03 78.01"><defs><style>.cls-1{fill:#fff;}</style></defs><g id="Layer_2" data-name="Layer 2"><g id="Warstwa_1" data-name="Warstwa 1"><path class="cls-1" d="M30,34H29a1.3,1.3,0,0,1-1.3-1.3V31.7a1.67,1.67,0,0,0-.34-1l-.07-.07a1.49,1.49,0,0,0-2,0,1.43,1.43,0,0,0-.41,1v.95a1.29,1.29,0,0,1-1.3,1.3h-.95a1.65,1.65,0,0,0-1,.34l-.07.07a1.43,1.43,0,0,0-.41,1,1.4,1.4,0,0,0,1.44,1.36h.95a1.3,1.3,0,0,1,1.3,1.3v1a1.39,1.39,0,0,0,.41,1,1.49,1.49,0,0,0,2,0,1.39,1.39,0,0,0,.41-1v-.89a1.3,1.3,0,0,1,1.3-1.3H30a1.37,1.37,0,0,0,1-.41,1.39,1.39,0,0,0,.41-1,1.43,1.43,0,0,0-.41-1A1.41,1.41,0,0,0,30,34Z"/><path class="cls-1" d="M62.45,36.62a31.44,31.44,0,0,0-2.87-7.72c-3.76-6.77-8.13-5.61-13.32-4.31a39.84,39.84,0,0,1-6.77,1.3h-1a40.36,40.36,0,0,1-6.7-1.3c-5.19-1.36-9.56-2.46-13.32,4.31a32.56,32.56,0,0,0-2.87,7.72,47.34,47.34,0,0,0-1.44,9.43,16.2,16.2,0,0,0,.69,6.56,2.68,2.68,0,0,0,1.64,1.7,4.2,4.2,0,0,0,2.8-.34c2.32-.89,5.12-3.07,7.92-5.67S34.44,44.54,39,44.54s9.16,1.3,11.76,3.9a28,28,0,0,0,7.92,5.67,4.67,4.67,0,0,0,2.8.34,2.68,2.68,0,0,0,1.64-1.71c.62-1.43.89-3.55.75-6.69A51.19,51.19,0,0,0,62.45,36.62ZM32.73,38.19a3.69,3.69,0,0,1-2.46,1.16,4.17,4.17,0,0,1-1.16,2.46A4.07,4.07,0,0,1,26.3,43a3.89,3.89,0,0,1-2.8-1.16,3.67,3.67,0,0,1-1.16-2.46,3.86,3.86,0,0,1-2.53-1.16,4,4,0,0,1-1.16-2.8,3.86,3.86,0,0,1,1.16-2.8l.07-.07a4.09,4.09,0,0,1,2.46-1.1,4,4,0,0,1,4-3.62A3.9,3.9,0,0,1,29.11,29l.06.07a3.91,3.91,0,0,1,1.1,2.39,4.18,4.18,0,0,1,2.46,1.17,4,4,0,0,1,1.16,2.8A3.87,3.87,0,0,1,32.73,38.19Zm13.32-.41a2.39,2.39,0,1,1,2.39-2.39A2.39,2.39,0,0,1,46.05,37.78Zm4.85,4.85a2.39,2.39,0,1,1,2.39-2.39A2.39,2.39,0,0,1,50.9,42.63Zm0-9.7a2.4,2.4,0,1,1,2.39-2.39A2.39,2.39,0,0,1,50.9,32.93Zm4.85,4.85a2.39,2.39,0,1,1,2.4-2.39A2.39,2.39,0,0,1,55.75,37.78Z"/><path class="cls-1" d="M75,23.83A39,39,0,1,0,17.21,71.35,39,39,0,0,0,75,23.83ZM65.46,53.7a5.12,5.12,0,0,1-3.28,3.14,7.14,7.14,0,0,1-4.38-.48,32,32,0,0,1-8.74-6.21C46.94,48.1,43,47.07,39,47.07s-7.92,1-10,3.08a32,32,0,0,1-8.75,6.21,6.64,6.64,0,0,1-4.37.48,5.18,5.18,0,0,1-3.28-3.07,18.77,18.77,0,0,1-1-7.79,51.43,51.43,0,0,1,1.51-9.91,34.93,34.93,0,0,1,3.07-8.34c4.79-8.47,10-7.1,16.2-5.53a43.63,43.63,0,0,0,6.28,1.23h.69a43.63,43.63,0,0,0,6.28-1.23c6.22-1.64,11.41-2.94,16.19,5.47A37.93,37.93,0,0,1,64.91,36a50.75,50.75,0,0,1,1.5,9.91C66.55,49.46,66.21,52,65.46,53.7Z"/></g></g></svg>
