<svg xmlns="http://www.w3.org/2000/svg" viewBox="0 0 80.03 80.01"><defs><style>.cls-1{fill:none;stroke:#fff;stroke-width:2px;}.cls-2{fill:#fff;}</style></defs><g id="Layer_2" data-name="Layer 2"><g id="Warstwa_1" data-name="Warstwa 1"><path id="Subtraction_19" data-name="Subtraction 19" class="cls-1" d="M40,79A39,39,0,0,1,7.68,18.21,39,39,0,1,1,40,79Z"/><path class="cls-2" d="M67.41,46.91A50.75,50.75,0,0,0,65.91,37a37.93,37.93,0,0,0-3.08-8.33c-4.78-8.41-10-7.11-16.19-5.47a43.63,43.63,0,0,1-6.28,1.23h-.69a43.63,43.63,0,0,1-6.28-1.23c-6.22-1.57-11.41-2.94-16.2,5.53a34.93,34.93,0,0,0-3.07,8.34A51.43,51.43,0,0,0,12.61,47a18.77,18.77,0,0,0,1,7.79,5.18,5.18,0,0,0,3.28,3.07,6.64,6.64,0,0,0,4.37-.48A32,32,0,0,0,30,51.15c2.12-2,6.08-3.08,10-3.08s7.93,1,10.05,3.08a32,32,0,0,0,8.74,6.21,7.14,7.14,0,0,0,4.38.48,5.12,5.12,0,0,0,3.28-3.14C67.21,53,67.55,50.46,67.41,46.91Zm-3.28,6.83a2.68,2.68,0,0,1-1.64,1.71,4.67,4.67,0,0,1-2.8-.34,28,28,0,0,1-7.92-5.67c-2.6-2.6-7.18-3.9-11.76-3.9s-9.15,1.3-11.82,3.76-5.6,4.78-7.92,5.67a4.2,4.2,0,0,1-2.8.34,2.68,2.68,0,0,1-1.64-1.7,16.2,16.2,0,0,1-.69-6.56,47.34,47.34,0,0,1,1.44-9.43,32.56,32.56,0,0,1,2.87-7.72c3.76-6.77,8.13-5.67,13.32-4.31a40.36,40.36,0,0,0,6.7,1.3h1a39.84,39.84,0,0,0,6.77-1.3c5.19-1.3,9.56-2.46,13.32,4.31a31.44,31.44,0,0,1,2.87,7.72,51.19,51.19,0,0,1,1.43,9.43C65,50.19,64.75,52.31,64.13,53.74Z"/><path class="cls-2" d="M33.73,33.59a4.18,4.18,0,0,0-2.46-1.17A3.91,3.91,0,0,0,30.17,30L30.11,30A3.9,3.9,0,0,0,27.3,28.8a4,4,0,0,0-4,3.62,4.09,4.09,0,0,0-2.46,1.1l-.07.07a3.86,3.86,0,0,0-1.16,2.8,4,4,0,0,0,1.16,2.8,3.86,3.86,0,0,0,2.53,1.16,3.67,3.67,0,0,0,1.16,2.46A3.89,3.89,0,0,0,27.3,44a4.07,4.07,0,0,0,2.81-1.16,4.17,4.17,0,0,0,1.16-2.46,3.69,3.69,0,0,0,2.46-1.16,3.87,3.87,0,0,0,1.16-2.8A4,4,0,0,0,33.73,33.59ZM32,37.41a1.37,1.37,0,0,1-1,.41H30a1.3,1.3,0,0,0-1.3,1.3V40a1.39,1.39,0,0,1-.41,1,1.49,1.49,0,0,1-2,0,1.39,1.39,0,0,1-.41-1v-1a1.3,1.3,0,0,0-1.3-1.3h-.95a1.4,1.4,0,0,1-1.44-1.36,1.43,1.43,0,0,1,.41-1l.07-.07a1.65,1.65,0,0,1,1-.34h.95a1.29,1.29,0,0,0,1.3-1.3V32.7a1.43,1.43,0,0,1,.41-1,1.49,1.49,0,0,1,2,0l.07.07a1.67,1.67,0,0,1,.34,1v.95A1.3,1.3,0,0,0,30,35H31a1.41,1.41,0,0,1,1,.41,1.43,1.43,0,0,1,.41,1A1.39,1.39,0,0,1,32,37.41Z"/><circle class="cls-2" cx="51.9" cy="31.54" r="2.39"/><circle class="cls-2" cx="51.9" cy="41.24" r="2.39"/><circle class="cls-2" cx="47.05" cy="36.39" r="2.39"/><circle class="cls-2" cx="56.75" cy="36.39" r="2.39"/></g></g></svg>
