<?xml version="1.0" encoding="utf-8"?>
<!-- Generator: Adobe Illustrator 24.1.1, SVG Export Plug-In . SVG Version: 6.00 Build 0)  -->
<svg version="1.1" id="Capa_1" xmlns="http://www.w3.org/2000/svg" xmlns:xlink="http://www.w3.org/1999/xlink" x="0px" y="0px"
	 viewBox="0 0 393.7 393.7" style="enable-background:new 0 0 393.7 393.7;" xml:space="preserve">
<style type="text/css">
	.st0{fill:#FFFFFF;}
</style>
<g>
	<path class="st0" d="M370.9,0h-93c-9.1,0-16.5,7.4-16.5,16.5s7.4,16.5,16.5,16.5H321L217.3,136.7c-21-12.9-45.8-20.3-72.2-20.3
		c-76.5,0-138.7,62.2-138.7,138.7c0,76.5,62.2,138.7,138.7,138.7s138.7-62.2,138.7-138.7c0-33.1-11.7-63.5-31-87.3L354.5,66v49.2
		c0,9.1,7.4,16.5,16.4,16.5c9.1,0,16.5-7.4,16.5-16.5V16.5C387.4,7.4,380,0,370.9,0z M145.1,346.7c-50.5,0-91.7-41.1-91.7-91.7
		c0-50.5,41.1-91.7,91.7-91.7c50.5,0,91.7,41.1,91.7,91.7C236.7,305.6,195.6,346.7,145.1,346.7z"/>
</g>
</svg>
