<svg xmlns="http://www.w3.org/2000/svg" viewBox="0 0 78.03 78.01"><defs><style>.cls-1{fill:#fff;}</style></defs><g id="Layer_2" data-name="Layer 2"><g id="Warstwa_1" data-name="Warstwa 1"><path class="cls-1" d="M53,19a1.69,1.69,0,0,0-1.58-.2l-19,7a1.73,1.73,0,0,0-1.13,1.62v5L53.7,24.15V20.43A1.72,1.72,0,0,0,53,19Z"/><path class="cls-1" d="M26.13,50a4.87,4.87,0,0,0-.65.05,7,7,0,0,0-5.57,5.57,3,3,0,0,0,3.67,3.66,7,7,0,0,0,5.56-5.56,4.7,4.7,0,0,0,.05-.63h0v0A2.89,2.89,0,0,0,26.13,50Z"/><path class="cls-1" d="M50.64,40.94A4.87,4.87,0,0,0,50,41a7,7,0,0,0-5.57,5.57,3,3,0,0,0,3.67,3.66,6.53,6.53,0,0,0,3.64-1.92,6.65,6.65,0,0,0,1.93-3.64,4.64,4.64,0,0,0,0-.63h0v0a2.87,2.87,0,0,0-3.06-3.06Z"/><path class="cls-1" d="M75,23.83A39,39,0,1,0,17.21,71.35,39,39,0,0,0,75,23.83ZM55.69,45a8.71,8.71,0,0,1-2.51,4.8,8.6,8.6,0,0,1-4.8,2.5,6.16,6.16,0,0,1-1,.07,5.05,5.05,0,0,1-3.67-1.44,5.29,5.29,0,0,1-1.37-4.61A9.06,9.06,0,0,1,49.7,39a5.44,5.44,0,0,1,4,.86V26.34L31.24,34.61V53.17a7.59,7.59,0,0,1-.07.81,9,9,0,0,1-7.3,7.3,6.26,6.26,0,0,1-.95.07,5,5,0,0,1-3.67-1.44,5.29,5.29,0,0,1-1.37-4.61A9.06,9.06,0,0,1,25.19,48a5.45,5.45,0,0,1,4,.86V27.44a3.78,3.78,0,0,1,2.47-3.54l19-7a3.77,3.77,0,0,1,5.07,3.54S55.72,44.67,55.69,45Z"/></g></g></svg>
