<svg xmlns="http://www.w3.org/2000/svg" viewBox="0 0 80.03 80.01"><defs><style>.cls-1{fill:none;stroke:#fff;stroke-width:2px;}.cls-2{fill:#fff;}</style></defs><g id="Layer_2" data-name="Layer 2"><g id="Warstwa_1" data-name="Warstwa 1"><path id="Subtraction_19" data-name="Subtraction 19" class="cls-1" d="M40,79A39,39,0,0,1,7.68,18.21,39,39,0,1,1,40,79Z"/><path class="cls-2" d="M55.14,18.34a3.78,3.78,0,0,0-3.46-.45l-19,7a3.78,3.78,0,0,0-2.47,3.54V49.85a5.45,5.45,0,0,0-4-.86,9.06,9.06,0,0,0-7.31,7.31,5.29,5.29,0,0,0,1.37,4.61,5,5,0,0,0,3.67,1.44,6.26,6.26,0,0,0,.95-.07,9,9,0,0,0,7.3-7.3,7.59,7.59,0,0,0,.07-.81V35.61L54.7,27.34V40.82a5.44,5.44,0,0,0-4-.86,9.06,9.06,0,0,0-7.31,7.31,5.29,5.29,0,0,0,1.37,4.61,5.05,5.05,0,0,0,3.67,1.44,6.16,6.16,0,0,0,1-.07,8.6,8.6,0,0,0,4.8-2.5A8.71,8.71,0,0,0,56.69,46c0-.28.06-24.52.06-24.52A3.76,3.76,0,0,0,55.14,18.34ZM30.19,54.06a4.7,4.7,0,0,1-.05.63,7,7,0,0,1-5.56,5.56,3,3,0,0,1-3.67-3.66A7,7,0,0,1,26.48,51a4.87,4.87,0,0,1,.65-.05A2.89,2.89,0,0,1,30.19,54v0ZM54.7,25.15,32.24,33.42v-5a1.73,1.73,0,0,1,1.13-1.62l19-7A1.69,1.69,0,0,1,54,20a1.72,1.72,0,0,1,.73,1.41ZM54.7,45a4.64,4.64,0,0,1,0,.63,6.65,6.65,0,0,1-1.93,3.64,6.53,6.53,0,0,1-3.64,1.92,3,3,0,0,1-3.67-3.66A7,7,0,0,1,51,42a4.87,4.87,0,0,1,.65-.05A2.87,2.87,0,0,1,54.7,45v0Z"/></g></g></svg>
